<svg version="1.1" xmlns="http://www.w3.org/2000/svg" xmlns:xlink="http://www.w3.org/1999/xlink" width="89" height="77"><defs/><g><path fill="rgb(0,0,0)" stroke="none" paint-order="stroke fill markers" fill-rule="evenodd" d=" M 86.19776093959808 3.1466673612594604 C 84.99653363227844 1.9484485983848572 83.54641342163086 1.34834223985672 81.84795820713043 1.34834223985672 C 81.84795820713043 1.34834223985672 8.01763379573822 1.34834223985672 8.01763379573822 1.34834223985672 C 6.318899631500244 1.34834223985672 4.868709683418274 1.9488916993141174 3.667203426361084 3.1466673612594604 C 2.4659063816070557 4.345624625682831 1.864769697189331 5.792275309562683 1.864769697189331 7.4868409633636475 C 1.864769697189331 7.4868409633636475 1.864769697189331 68.86702793836594 1.864769697189331 68.86702793836594 C 1.864769697189331 70.56137204170227 2.465418219566345 72.00757962465286 3.667203426361084 73.20646303892136 C 4.869337320327759 74.40542030334473 6.318899631500244 75.00552666187286 8.01763379573822 75.00552666187286 C 8.01763379573822 75.00552666187286 81.84677267074585 75.00552666187286 81.84677267074585 75.00552666187286 C 83.54585552215576 75.00552666187286 84.99597573280334 74.40542030334473 86.19776093959808 73.20646303892136 C 87.39850008487701 72.00757962465286 87.99998545646667 70.56137204170227 87.99998545646667 68.86702793836594 C 87.99998545646667 68.86702793836594 87.99998545646667 7.4868409633636475 87.99998545646667 7.4868409633636475 C 87.99998545646667 5.79301381111145 87.39850008487701 4.346141576766968 86.19776093959808 3.1466673612594604 Z M 14.169661045074463 4.417480826377869 C 14.169661045074463 4.417480826377869 32.62748622894287 4.417480826377869 32.62748622894287 4.417480826377869 C 32.62748622894287 4.417480826377869 32.62748622894287 10.555536448955536 32.62748622894287 10.555536448955536 C 32.62748622894287 10.555536448955536 14.169661045074463 10.555536448955536 14.169661045074463 10.555536448955536 C 14.169661045074463 10.555536448955536 14.169661045074463 4.417480826377869 14.169661045074463 4.417480826377869 Z M 81.84795820713043 68.86702793836594 C 81.84795820713043 68.86702793836594 8.01763379573822 68.86702793836594 8.01763379573822 68.86702793836594 C 8.01763379573822 68.86702793836594 8.01763379573822 62.72875076532364 8.01763379573822 62.72875076532364 C 8.01763379573822 62.72875076532364 81.84795820713043 62.72875076532364 81.84795820713043 62.72875076532364 C 81.84795820713043 62.72875076532364 81.84795820713043 68.86702793836594 81.84795820713043 68.86702793836594 C 81.84795820713043 68.86702793836594 81.84795820713043 68.86702793836594 81.84795820713043 68.86702793836594 Z M 26.474552392959595 41.34189361333847 C 26.474552392959595 36.25886130332947 28.277544021606445 31.91868770122528 31.88220226764679 28.32225900888443 C 35.48769736289978 24.726125717163086 39.83729088306427 22.928095996379852 44.932377576828 22.928095996379852 C 50.027743220329285 22.928095996379852 54.37761569023132 24.726125717163086 57.98248314857483 28.32225900888443 C 61.58742034435272 31.91868770122528 63.389575123786926 36.25886130332947 63.389575123786926 41.34189361333847 C 63.389575123786926 46.4251474738121 61.58742034435272 50.7646564245224 57.98248314857483 54.361232817173004 C 54.37761569023132 57.957661509513855 50.027743220329285 59.75591278076172 44.932377576828 59.75591278076172 C 39.83729088306427 59.75591278076172 35.48769736289978 57.957661509513855 31.88220226764679 54.361232817173004 C 28.276986122131348 50.7646564245224 26.474552392959595 46.4251474738121 26.474552392959595 41.34189361333847 Z M 81.84795820713043 14.104922592639923 C 81.84795820713043 14.104922592639923 81.84795820713043 19.762656807899475 81.84795820713043 19.762656807899475 C 81.84795820713043 19.762656807899475 8.01763379573822 19.762656807899475 8.01763379573822 19.762656807899475 C 8.01763379573822 19.762656807899475 8.01763379573822 13.625118136405945 8.01763379573822 13.625118136405945 C 8.01763379573822 13.625118136405945 38.97303485870361 13.625118136405945 38.97303485870361 13.625118136405945 C 38.97303485870361 13.625118136405945 42.04908335208893 7.487357914447784 42.04908335208893 7.487357914447784 C 42.04908335208893 7.487357914447784 81.84795820713043 7.487357914447784 81.84795820713043 7.487357914447784 C 81.84795820713043 7.487357914447784 81.84795820713043 14.104922592639923 81.84795820713043 14.104922592639923 C 81.84795820713043 14.104922592639923 81.84795820713043 14.104922592639923 81.84795820713043 14.104922592639923 Z M 53.63205277919769 50.021576166152954 C 56.03569293022156 47.62366163730621 57.237547874450684 44.73058182001114 57.237547874450684 41.34189361333847 C 57.237547874450684 37.95342695713043 56.03569293022156 35.0599040389061 53.63205277919769 32.662506461143494 C 51.22904026508331 30.264813482761383 48.32928800582886 29.065856218338013 44.932377576828 29.065856218338013 C 41.53546714782715 29.065856218338013 38.63571488857269 30.264813482761383 36.23207473754883 32.662506461143494 C 33.82927143573761 35.0599040389061 32.62748622894287 37.95342695713043 32.62748622894287 41.34189361333847 C 32.62748622894287 44.73058182001114 33.82871353626251 47.62366163730621 36.23207473754883 50.021576166152954 C 38.63571488857269 52.41897374391556 41.536025047302246 53.61793100833893 44.932377576828 53.61793100833893 C 48.32928800582886 53.61793100833893 51.22904026508331 52.41897374391556 53.63205277919769 50.021576166152954 Z M 41.663365602493286 37.985034823417664 C 40.765984296798706 38.88054180145264 40.31771206855774 39.967320680618286 40.31771206855774 41.24581456184387 C 40.31771206855774 41.69356805086136 40.17370426654816 42.06126797199249 39.88506102561951 42.348692774772644 C 39.59676647186279 42.63663452863693 39.22855281829834 42.77990382909775 38.77944374084473 42.77990382909775 C 38.33068335056305 42.77990382909775 37.962469696998596 42.63663452863693 37.67389619350433 42.348692774772644 C 37.385462164878845 42.06126797199249 37.24145436286926 41.69356805086136 37.24145436286926 41.24581456184387 C 37.24145436286926 39.13562023639679 37.994479179382324 37.33013164997101 39.50052881240845 35.827207148075104 C 41.00685739517212 34.32472574710846 42.8173109292984 33.573965072631836 44.932377576828 33.573965072631836 C 45.38058006763458 33.573965072631836 45.74935162067413 33.71723437309265 46.037925124168396 34.00517612695694 C 46.32663810253143 34.29237937927246 46.470645904541016 34.660079300403595 46.470645904541016 35.10761123895645 C 46.470645904541016 35.55529087781906 46.32663810253143 35.923212349414825 46.0373672246933 36.211154103279114 C 45.74872398376465 36.49887430667877 45.380022168159485 36.64258670806885 44.93174993991852 36.64258670806885 C 43.649906158447266 36.64258670806885 42.56067717075348 37.089897096157074 41.663365602493286 37.985034823417664 Z"/></g></svg>