<svg version="1.1" xmlns="http://www.w3.org/2000/svg" xmlns:xlink="http://www.w3.org/1999/xlink" width="89" height="77"><defs/><g><path fill="rgb(0,0,0)" stroke="none" paint-order="stroke fill markers" fill-rule="evenodd" d=" M 55.69219088554382 52.63311940431595 C 55.69219088554382 53.464819848537445 55.38743829727173 54.1844157576561 54.77897918224335 54.791464030742645 C 54.170031905174255 55.39895540475845 53.448667883872986 55.70292264223099 52.61558449268341 55.70292264223099 C 52.61558449268341 55.70292264223099 37.234365701675415 55.70292264223099 37.234365701675415 55.70292264223099 C 36.40072441101074 55.70292264223099 35.67998802661896 55.39895540475845 35.071040749549866 54.791464030742645 C 34.462302684783936 54.1844157576561 34.15782904624939 53.464819848537445 34.15782904624939 52.63311940431595 C 34.15782904624939 52.63311940431595 34.15782904624939 44.96149146556854 34.15782904624939 44.96149146556854 C 34.15782904624939 44.96149146556854 1.8571231365203857 44.96149146556854 1.8571231365203857 44.96149146556854 C 1.8571231365203857 44.96149146556854 1.8571231365203857 67.97873848676682 1.8571231365203857 67.97873848676682 C 1.8571231365203857 70.0879727602005 2.6098690032958984 71.89471679925919 4.116127848625183 73.39712435007095 C 5.622177481651306 74.8996057510376 7.432979702949524 75.65036642551422 9.547976613044739 75.65036642551422 C 9.547976613044739 75.65036642551422 80.30197358131409 75.65036642551422 80.30197358131409 75.65036642551422 C 82.4164125919342 75.65036642551422 84.22728455066681 74.8996057510376 85.73326444625854 73.39712435007095 C 87.23987197875977 71.89471679925919 87.99233889579773 70.0879727602005 87.99233889579773 67.97873848676682 C 87.99233889579773 67.97873848676682 87.99233889579773 44.96149146556854 87.99233889579773 44.96149146556854 C 87.99233889579773 44.96149146556854 55.69219088554382 44.96149146556854 55.69219088554382 44.96149146556854 C 55.69219088554382 44.96149146556854 55.69219088554382 52.63311940431595 55.69219088554382 52.63311940431595 C 55.69219088554382 52.63311940431595 55.69219088554382 52.63311940431595 55.69219088554382 52.63311940431595 Z M 38.77186691761017 44.96149146556854 C 38.77186691761017 44.96149146556854 51.077874064445496 44.96149146556854 51.077874064445496 44.96149146556854 C 51.077874064445496 44.96149146556854 51.077874064445496 51.09903013706207 51.077874064445496 51.09903013706207 C 51.077874064445496 51.09903013706207 38.77186691761017 51.09903013706207 38.77186691761017 51.09903013706207 C 38.77186691761017 51.09903013706207 38.77186691761017 44.96149146556854 38.77186691761017 44.96149146556854 Z M 85.73326444625854 16.524603128433228 C 84.22728455066681 15.021900177001953 82.4164125919342 14.2709179520607 80.30197358131409 14.2709179520607 C 80.30197358131409 14.2709179520607 63.38199830055237 14.2709179520607 63.38199830055237 14.2709179520607 C 63.38199830055237 14.2709179520607 63.38199830055237 6.598329961299896 63.38199830055237 6.598329961299896 C 63.38199830055237 5.31939297914505 62.9337260723114 4.232761800289154 62.03606581687927 3.3375502228736877 C 61.139591097831726 2.4428555965423584 60.04952526092529 1.9951021075248718 58.76816964149475 1.9951021075248718 C 58.76816964149475 1.9951021075248718 31.081780552864075 1.9951021075248718 31.081780552864075 1.9951021075248718 C 29.80021572113037 1.9951021075248718 28.710707783699036 2.4428555965423584 27.813396215438843 3.3375502228736877 C 26.916014909744263 4.232023298740387 26.467463731765747 5.31939297914505 26.467463731765747 6.598329961299896 C 26.467463731765747 6.598329961299896 26.467463731765747 14.2709179520607 26.467463731765747 14.2709179520607 C 26.467463731765747 14.2709179520607 9.547976613044739 14.2709179520607 9.547976613044739 14.2709179520607 C 7.432979702949524 14.2709179520607 5.622177481651306 15.021900177001953 4.116127848625183 16.524603128433228 C 2.6098690032958984 18.027306079864502 1.8571231365203857 19.832794666290283 1.8571231365203857 21.942988991737366 C 1.8571231365203857 21.942988991737366 1.8571231365203857 40.35752511024475 1.8571231365203857 40.35752511024475 C 1.8571231365203857 40.35752511024475 87.99233889579773 40.35752511024475 87.99233889579773 40.35752511024475 C 87.99233889579773 40.35752511024475 87.99233889579773 21.942988991737366 87.99233889579773 21.942988991737366 C 87.99233889579773 19.832794666290283 87.23987197875977 18.027306079864502 85.73326444625854 16.524603128433228 Z M 57.22990131378174 14.2709179520607 C 57.22990131378174 14.2709179520607 32.619839668273926 14.2709179520607 32.619839668273926 14.2709179520607 C 32.619839668273926 14.2709179520607 32.619839668273926 8.132640779018402 32.619839668273926 8.132640779018402 C 32.619839668273926 8.132640779018402 57.22990131378174 8.132640779018402 57.22990131378174 8.132640779018402 C 57.22990131378174 8.132640779018402 57.22990131378174 14.2709179520607 57.22990131378174 14.2709179520607 Z"/></g></svg>