<svg version="1.1" xmlns="http://www.w3.org/2000/svg" xmlns:xlink="http://www.w3.org/1999/xlink" width="90" height="70"><defs/><g><path fill="rgb(0,0,0)" stroke="none" paint-order="stroke fill markers" fill-rule="evenodd" d=" M 84.72331440448761 27.639213979244232 C 82.44868850708008 22.33197259902954 79.38819146156311 17.761091113090515 75.54307854175568 13.9242063164711 C 71.69796562194824 10.087764620780945 67.1153095960617 7.034946918487549 61.79518020153046 4.765162408351898 C 56.475120544433594 2.4956732988357544 50.90037977695465 1.3604487180709839 45.06761050224304 1.3604487180709839 C 39.235050439834595 1.3604487180709839 33.659472823143005 2.4956732988357544 28.34025001525879 4.765162408351898 C 23.021027207374573 7.035685420036316 18.438719868659973 10.087764620780945 14.593537211418152 13.9242063164711 C 10.747447967529297 17.761091113090515 7.68792724609375 22.33197259902954 5.412464499473572 27.639213979244232 C 3.137559652328491 32.94645535945892 1.999932885169983 38.508849024772644 1.999932885169983 44.326838076114655 C 1.999932885169983 52.70247954130173 4.2590073347091675 60.423660933971405 8.777365446090698 67.48949605226517 C 9.385754823684692 68.41609394550323 10.251126646995544 68.87935596704483 11.372923016548157 68.87935596704483 C 11.372923016548157 68.87935596704483 78.76257693767548 68.87935596704483 78.76257693767548 68.87935596704483 C 79.8837456703186 68.87935596704483 80.74911749362946 68.41609394550323 81.35743713378906 67.48949605226517 C 85.87614393234253 60.392053067684174 88.13521838188171 52.67161017656326 88.13521838188171 44.326838076114655 C 88.13521838188171 38.508849024772644 86.99794030189514 32.94645535945892 84.72331440448761 27.639213979244232 Z M 40.717180132865906 9.297494113445282 C 41.91959297657013 8.098315298557281 43.369155287742615 7.498504340648651 45.06761050224304 7.498504340648651 C 46.76606571674347 7.498504340648651 48.21555829048157 8.098315298557281 49.41741323471069 9.297494113445282 C 50.61926817893982 10.495712876319885 51.22075355052948 11.942658960819244 51.22075355052948 13.637003064155579 C 51.22075355052948 15.331347167491913 50.61926817893982 16.777480900287628 49.41741323471069 17.976438164711 C 48.21555829048157 19.175616979599 46.76606571674347 19.77542793750763 45.06761050224304 19.77542793750763 C 43.369155287742615 19.77542793750763 41.918965339660645 19.175616979599 40.717180132865906 17.976438164711 C 39.51588308811188 16.777480900287628 38.914676666259766 15.331347167491913 38.914676666259766 13.637003064155579 C 38.914676666259766 11.942658960819244 39.51532518863678 10.495712876319885 40.717180132865906 9.297494113445282 Z M 18.655324339866638 48.666494727134705 C 17.453469395637512 49.865451991558075 16.003279447555542 50.46600145101547 14.304824233055115 50.46600145101547 C 12.606996655464172 50.46600145101547 11.15687644481659 49.865451991558075 9.955021500587463 48.666494727134705 C 8.753236293792725 47.46879291534424 8.15286672115326 46.02140372991562 8.15286672115326 44.326838076114655 C 8.15286672115326 42.63249397277832 8.753236293792725 41.18628638982773 9.955021500587463 39.98732912540436 C 11.15687644481659 38.78837186098099 12.606996655464172 38.18878245353699 14.304824233055115 38.18878245353699 C 16.003279447555542 38.18878245353699 17.45402729511261 38.78837186098099 18.655324339866638 39.98732912540436 C 19.85655164718628 41.18628638982773 20.45775806903839 42.63249397277832 20.45775806903839 44.326838076114655 C 20.45775806903839 46.02140372991562 19.85655164718628 47.467537462711334 18.655324339866638 48.666494727134705 Z M 27.884167194366455 27.183853924274445 C 26.68175435066223 28.38273733854294 25.232261776924133 28.98210519552231 23.53373682498932 28.98210519552231 C 21.83528161048889 28.98210519552231 20.38516139984131 28.381851136684418 19.18337619304657 27.183853924274445 C 17.98207914829254 25.985339760780334 17.38087272644043 24.538689076900482 17.38087272644043 22.844123423099518 C 17.38087272644043 21.149779319763184 17.981521248817444 19.70357173681259 19.18337619304657 18.50439292192459 C 20.385789036750793 17.30543565750122 21.83528161048889 16.70584625005722 23.53373682498932 16.70584625005722 C 25.232261776924133 16.70584625005722 26.682381987571716 17.30543565750122 27.884167194366455 18.50439292192459 C 29.085464239120483 19.70357173681259 29.686670660972595 21.149779319763184 29.686670660972595 22.844123423099518 C 29.686670660972595 24.537950575351715 29.085464239120483 25.984601259231567 27.884167194366455 27.183853924274445 Z M 55.11314845085144 27.591506779193878 C 55.11314845085144 27.591506779193878 50.25802826881409 45.909299194812775 50.25802826881409 45.909299194812775 C 51.86143136024475 46.9961519241333 53.01481878757477 48.450409173965454 53.720003724098206 50.27369564771652 C 54.42407286167145 52.095726668834686 54.52086842060089 53.96583414077759 54.00808906555176 55.88350111246109 C 53.367480993270874 58.34536987543106 51.94093203544617 60.21621584892273 49.729697465896606 61.494488179683685 C 47.518462896347046 62.77276051044464 45.1796088218689 63.09349173307419 42.711740493774414 62.453137040138245 C 40.24470901489258 61.814037799835205 38.36967861652374 60.392053067684174 37.0883229970932 58.186075091362 C 35.80696737766266 55.97884166240692 35.48638439178467 53.646579921245575 36.12734115123749 51.18397265672684 C 36.639771819114685 49.26660108566284 37.64922118186951 47.6918203830719 39.15554976463318 46.46169835329056 C 40.66132044792175 45.23039472103119 42.37553632259369 44.53546476364136 44.2981276512146 44.3752099275589 C 44.2981276512146 44.3752099275589 49.152968883514404 26.057195961475372 49.152968883514404 26.057195961475372 C 49.37710499763489 25.225938618183136 49.857595920562744 24.594002842903137 50.59451138973236 24.162348687648773 C 51.331984758377075 23.731654584407806 52.1004912853241 23.62745201587677 52.90191388130188 23.8512179851532 C 53.70396411418915 24.075427055358887 54.32037329673767 24.54636949300766 54.752466440200806 25.265226900577545 C 55.18574512004852 25.985339760780334 55.305554032325745 26.76032328605652 55.11314845085144 27.591506779193878 Z M 62.25154197216034 27.183853924274445 C 61.04968702793121 25.985339760780334 60.44820165634155 24.538689076900482 60.44820165634155 22.844123423099518 C 60.44820165634155 21.149779319763184 61.04968702793121 19.70357173681259 62.25154197216034 18.50439292192459 C 63.453396916389465 17.30543565750122 64.90295922756195 16.70584625005722 66.60141444206238 16.70584625005722 C 68.2998696565628 16.70584625005722 69.7493622303009 17.30543565750122 70.95121717453003 18.50439292192459 C 72.15307211875916 19.70357173681259 72.75455749034882 21.149779319763184 72.75455749034882 22.844123423099518 C 72.75455749034882 24.537950575351715 72.15307211875916 25.984601259231567 70.95121717453003 27.183853924274445 C 69.7493622303009 28.38273733854294 68.2998696565628 28.98210519552231 66.60141444206238 28.98210519552231 C 64.90295922756195 28.98210519552231 63.453396916389465 28.38273733854294 62.25154197216034 27.183853924274445 Z M 80.17985081672668 48.666494727134705 C 78.97799587249756 49.865451991558075 77.52843356132507 50.46600145101547 75.82997834682465 50.46600145101547 C 74.13152313232422 50.46600145101547 72.68196082115173 49.865451991558075 71.48010587692261 48.666494727134705 C 70.27832067012787 47.46879291534424 69.6773931980133 46.02140372991562 69.6773931980133 44.326838076114655 C 69.6773931980133 42.63249397277832 70.27832067012787 41.18628638982773 71.48010587692261 39.98732912540436 C 72.68196082115173 38.78837186098099 74.13152313232422 38.18878245353699 75.82997834682465 38.18878245353699 C 77.52843356132507 38.18878245353699 78.97799587249756 38.78837186098099 80.17985081672668 39.98732912540436 C 81.38114786148071 41.18628638982773 81.98200559616089 42.63249397277832 81.98200559616089 44.326838076114655 C 81.98200559616089 46.02140372991562 81.38163602352142 47.467537462711334 80.17985081672668 48.666494727134705 Z"/></g></svg>